<svg width="104" height="104" xmlns="http://www.w3.org/2000/svg"><g fill-rule="nonzero" fill="none"><path d="M34.774 39.626H18.952c-.457 0-.896.18-1.219.505l-6.386 6.386H10.02c-.713-2-2.608-3.445-4.851-3.445A5.175 5.175 0 000 48.24a5.175 5.175 0 005.169 5.169c2.243 0 4.138-1.446 4.851-3.446h2.04c.457 0 .896-.18 1.218-.505l6.387-6.386h15.11c.713 2 2.608 3.445 4.85 3.445 1.31 0 2.492-.504 3.404-1.309l7.02 3.906a5.105 5.105 0 00-.086.85 5.175 5.175 0 005.169 5.168 5.175 5.175 0 005.168-5.169c0-.291-.04-.572-.086-.85l7.02-3.905c.912.805 2.094 1.31 3.403 1.31a5.175 5.175 0 005.169-5.17c0-2.242-1.445-4.138-3.446-4.85V28.97c2-.713 3.446-2.608 3.446-4.852a5.175 5.175 0 00-5.169-5.168c-1.309 0-2.49.505-3.402 1.31l-7.02-3.907c.046-.275.085-.556.085-.847a5.175 5.175 0 00-5.168-5.169 5.175 5.175 0 00-5.169 5.169c0 .29.04.572.086.85l-7.02 3.905c-.912-.805-2.094-1.31-3.403-1.31-2.243 0-4.138 1.446-4.852 3.446h-15.11l-6.386-6.386a1.718 1.718 0 00-1.218-.505h-2.04c-.713-2-2.608-3.446-4.851-3.446A5.175 5.175 0 000 17.23a5.175 5.175 0 005.169 5.168c2.243 0 4.138-1.445 4.851-3.445h1.327l6.386 6.386c.323.324.762.505 1.219.505h15.822a5.163 5.163 0 003.129 3.129v2.04H10.02c-.713-2-2.608-3.446-4.851-3.446A5.175 5.175 0 000 32.734a5.175 5.175 0 005.169 5.169c2.243 0 4.138-1.445 4.851-3.446h27.883v2.04a5.163 5.163 0 00-3.129 3.129zM5.17 49.963c-.95 0-1.723-.773-1.723-1.723 0-.95.773-1.723 1.723-1.723.949 0 1.722.774 1.722 1.723 0 .95-.773 1.723-1.722 1.723zm0-31.011c-.95 0-1.723-.774-1.723-1.723 0-.95.773-1.723 1.723-1.723.949 0 1.722.773 1.722 1.723 0 .949-.773 1.723-1.722 1.723zm0 15.505c-.95 0-1.723-.773-1.723-1.723 0-.949.773-1.722 1.723-1.722.949 0 1.722.773 1.722 1.722 0 .95-.773 1.723-1.722 1.723zm34.457 8.615c-.95 0-1.723-.774-1.723-1.723 0-.95.774-1.723 1.723-1.723.95 0 1.723.773 1.723 1.723 0 .949-.774 1.723-1.723 1.723zm3.403-15.093l7.02 3.906a5.105 5.105 0 00-.086.85c0 .29.04.571.086.849l-7.02 3.906a5.178 5.178 0 00-1.68-.993V28.97a5.096 5.096 0 001.68-.99zm24.206 9.51l-7.02-3.905c.046-.278.085-.558.085-.85 0-.29-.04-.572-.086-.849l7.02-3.906c.49.431 1.055.769 1.68.993v7.527a5.096 5.096 0 00-1.68.99zM44.708 40.5l7.021-3.905c.49.43 1.054.768 1.68.992v7.527a5.13 5.13 0 00-1.68.993l-7.02-3.906c.046-.28.085-.56.085-.851 0-.291-.04-.572-.086-.85zm10.424-9.487c.949 0 1.723.773 1.723 1.722 0 .95-.774 1.723-1.723 1.723-.95 0-1.723-.773-1.723-1.723 0-.949.773-1.722 1.723-1.722zm1.723 6.574a5.13 5.13 0 001.68-.992l7.02 3.905a5.105 5.105 0 00-.086.85c0 .29.04.572.086.85l-7.02 3.905a5.178 5.178 0 00-1.68-.993v-7.525zm8.7-12.617l-7.02 3.906a5.178 5.178 0 00-1.68-.992v-7.527a5.13 5.13 0 001.68-.993l7.02 3.906c-.047.28-.086.56-.086.851 0 .291.04.572.086.85zm-12.146 2.914a5.13 5.13 0 00-1.68.992l-7.02-3.906c.046-.277.085-.558.085-.849 0-.291-.04-.572-.086-.85l7.021-3.905c.49.43 1.054.768 1.68.992v7.526zm1.723 23.803c-.95 0-1.723-.774-1.723-1.723 0-.95.773-1.723 1.723-1.723.949 0 1.723.774 1.723 1.723 0 .95-.774 1.723-1.723 1.723zm15.505-8.614c-.949 0-1.722-.774-1.722-1.723 0-.95.773-1.723 1.722-1.723.95 0 1.723.773 1.723 1.723 0 .949-.773 1.723-1.723 1.723zm0-20.675c.95 0 1.723.774 1.723 1.723 0 .95-.773 1.723-1.723 1.723-.949 0-1.722-.774-1.722-1.723 0-.95.773-1.723 1.722-1.723zm-15.505-8.614c.949 0 1.723.773 1.723 1.723 0 .95-.774 1.723-1.723 1.723-.95 0-1.723-.774-1.723-1.723 0-.95.773-1.723 1.723-1.723zm-15.506 8.614c.95 0 1.723.774 1.723 1.723 0 .95-.774 1.723-1.723 1.723-.95 0-1.723-.774-1.723-1.723 0-.95.774-1.723 1.723-1.723z" fill="#00F3BB"/><path d="M36.18 103.372h27.566c.951 0 1.723-.772 1.723-1.723v-12.06h22.397c.951 0 1.723-.772 1.723-1.723V67.192h12.06a1.723 1.723 0 001.645-2.238l-8.59-27.487c-.344-10.454-4.758-20.102-12.463-27.213C74.447 3.064 64.29-.548 53.666.07 41.436.784 30.107 7.494 23.359 18.02l2.9 1.86c6.157-9.602 16.477-15.722 27.61-16.373 9.684-.57 18.938 2.729 26.034 9.28 7.12 6.568 11.157 15.519 11.367 25.2.007.297.095.578.243.821l7.793 24.937h-11.44c-.95 0-1.723.772-1.723 1.723v6.891h-5.168a5.175 5.175 0 01-5.169-5.168H72.36c0 4.75 3.865 8.614 8.615 8.614h5.168v10.337H63.746c-.951 0-1.723.772-1.723 1.723v12.06h-24.12V98.26c0-13.94-4.19-28.193-12.119-41.22a35 35 0 01-3.94-9.24l-3.332.881a38.449 38.449 0 004.328 10.151c7.6 12.488 11.617 26.12 11.617 39.428v3.389c0 .951.772 1.723 1.723 1.723z" fill="#0000EC"/></g></svg>