<svg width="104" height="104" xmlns="http://www.w3.org/2000/svg"><g fill-rule="nonzero" fill="none"><path d="M8.667 104h86.666c4.78 0 8.667-3.888 8.667-8.667V93.6h-.012c0-.205-.024-.41-.097-.608L93.6 65.552V8.666C93.6 3.887 89.712 0 84.933 0H19.067C14.287 0 10.4 3.888 10.4 8.667V65.55L.11 92.991a1.747 1.747 0 00-.098.609H0v1.733C0 100.113 3.888 104 8.667 104zm86.666-3.467H8.667a5.206 5.206 0 01-5.2-5.2h33.949l1.225 1.226c.324.326.766.508 1.226.508h24.266c.46 0 .902-.182 1.226-.508l1.225-1.226h33.95c0 2.867-2.334 5.2-5.2 5.2zM19.067 3.467h65.866c2.867 0 5.2 2.333 5.2 5.2v55.466H13.867V8.667c0-2.867 2.333-5.2 5.2-5.2zM13.335 67.6h77.33l9.1 24.267H65.867c-.46 0-.902.182-1.226.508L63.416 93.6H40.584l-1.225-1.225a1.729 1.729 0 00-1.226-.508H4.235l9.1-24.267z" fill="#0000EC"/><path fill="#0000EC" d="M12.133 84.933h6.933V88.4h-6.933zM24.267 84.933H31.2V88.4h-6.933zM36.4 84.933h31.2V88.4H36.4zM72.8 84.933h6.933V88.4H72.8zM84.933 84.933h6.933V88.4h-6.933zM13.867 78h10.4v3.467h-10.4zM29.467 78H36.4v3.467h-6.933zM41.6 78h6.933v3.467H41.6zM53.733 78h6.933v3.467h-6.933zM65.867 78H72.8v3.467h-6.933zM78 78h12.133v3.467H78zM24.267 71.067h3.467v3.467h-3.467zM17.333 71.067H20.8v3.467h-3.467zM32.933 71.067h6.933v3.467h-6.933zM45.067 71.067H52v3.467h-6.933zM57.2 71.067h6.933v3.467H57.2zM69.333 71.067h6.933v3.467h-6.933zM81.467 71.067H88.4v3.467h-6.933zM19.067 60.667h65.866c.957 0 1.734-.777 1.734-1.734V8.667c0-.957-.777-1.734-1.734-1.734H19.067c-.957 0-1.734.777-1.734 1.734v50.266c0 .957.777 1.734 1.734 1.734zM20.8 10.4h62.4v46.8H20.8V10.4z"/><path d="M29.975 14.375l-5.2 5.2a1.731 1.731 0 000 2.45l5.2 5.2 2.45-2.45-3.974-3.975 3.974-3.975-2.45-2.45zM49.759 14.375l-2.451 2.45 3.974 3.975-3.974 3.975 2.45 2.45 5.2-5.2a1.731 1.731 0 000-2.45l-5.2-5.2zM52.508 38.641l-5.2 5.2a1.731 1.731 0 000 2.451l5.2 5.2 2.45-2.45-3.974-3.975 3.975-3.975-2.451-2.45zM72.292 38.641l-2.45 2.451 3.974 3.975-3.975 3.974 2.451 2.451 5.2-5.2a1.731 1.731 0 000-2.45l-5.2-5.2zM57.38 49.492l5.2-10.4 3.101 1.551-5.2 10.4zM41.6 48.533h3.467V52H41.6zM34.667 48.533h3.467V52h-3.467zM27.733 48.533H31.2V52h-3.467zM65.867 22.533H62.4V26h1.733v5.2H67.6v-6.933c0-.957-.777-1.734-1.733-1.734zM62.4 15.6h3.467v3.467H62.4z" fill="#00F3BB"/></g></svg>