<svg width="104" height="104" xmlns="http://www.w3.org/2000/svg"><g fill-rule="nonzero" fill="none"><path d="M91.312 25.843c.456 0 .896-.18 1.218-.505l6.891-6.891c.324-.322.505-.762.505-1.218V10.02c2-.713 3.446-2.608 3.446-4.851A5.175 5.175 0 0098.203 0a5.175 5.175 0 00-5.168 5.169c0 2.243 1.445 4.138 3.445 4.851v6.495L90.6 22.397h-20.88c-1.25-.773-2.53-1.493-3.86-2.095a1.647 1.647 0 00-.39-.107v-7.422l5.882-5.882h3.05c.712 2 2.608 3.446 4.85 3.446a5.175 5.175 0 005.17-5.168A5.175 5.175 0 0079.25 0c-2.242 0-4.138 1.445-4.85 3.446h-3.764c-.456 0-.895.18-1.218.505l-6.891 6.891a1.718 1.718 0 00-.505 1.218v10.63l-1.139 1.216a28.93 28.93 0 00-3.26-.871l-1.006-4.31A1.724 1.724 0 0055.11 17.4c-.579-.057-1.135-.057-1.7-.084V10.02c2-.713 3.446-2.608 3.446-4.851A5.175 5.175 0 0051.685 0a5.175 5.175 0 00-5.168 5.169c0 2.243 1.446 4.138 3.446 4.851v7.297c-.565.029-1.123.027-1.7.084a1.724 1.724 0 00-1.51 1.323l-1.006 4.31a28.902 28.902 0 00-3.258.872l-1.14-1.218V12.06c0-.457-.181-.896-.505-1.218l-6.892-6.891a1.718 1.718 0 00-1.218-.505h-3.762C28.258 1.446 26.363 0 24.12 0a5.175 5.175 0 00-5.168 5.169 5.175 5.175 0 005.168 5.168c2.243 0 4.138-1.445 4.852-3.446h3.05l5.881 5.882v7.422c-.13.026-.264.05-.391.107-1.328.602-2.607 1.322-3.86 2.095H12.774l-5.882-5.882V10.02c2-.713 3.446-2.608 3.446-4.851A5.175 5.175 0 005.17 0 5.175 5.175 0 000 5.169c0 2.243 1.445 4.138 3.446 4.851v7.209c0 .456.18.896.505 1.218l6.891 6.891c.322.324.761.505 1.218.505h18.946l1.206 3.97a29.482 29.482 0 00-2.4 2.4l-4.176-1.27a1.719 1.719 0 00-1.898.64 35.279 35.279 0 00-1.863 2.874h-6.688c-.711-2-2.607-3.445-4.85-3.445A5.175 5.175 0 005.17 36.18a5.175 5.175 0 005.168 5.169c2.243 0 4.139-1.446 4.852-3.446h5.006c-.108.57.062 1.166.5 1.576l3.211 3.009a28.93 28.93 0 00-.871 3.26l-4.31 1.005a1.724 1.724 0 00-1.324 1.51c-.057.578-.057 1.132-.086 1.7H10.02c-.713-2-2.608-3.446-4.851-3.446A5.175 5.175 0 000 51.686a5.175 5.175 0 005.169 5.169c2.243 0 4.138-1.446 4.851-3.446h7.297c.029.568.029 1.121.086 1.7a1.724 1.724 0 001.323 1.51l4.31 1.006c.228 1.102.519 2.193.872 3.258l-3.211 3.008a1.71 1.71 0 00-.5 1.578H15.19c-.714-2-2.61-3.446-4.853-3.446a5.175 5.175 0 00-5.168 5.169 5.175 5.175 0 005.168 5.168c2.243 0 4.139-1.445 4.852-3.445h6.688a34.62 34.62 0 001.86 2.872 1.72 1.72 0 001.9.64l4.177-1.268a29.21 29.21 0 002.4 2.4l-1.21 3.97H12.06c-.457 0-.896.18-1.218.505l-6.891 6.891a1.718 1.718 0 00-.505 1.218v7.209C1.446 94.065 0 95.96 0 98.203a5.175 5.175 0 005.169 5.169 5.175 5.175 0 005.168-5.169c0-2.243-1.445-4.138-3.446-4.851v-6.496l5.882-5.881h20.88c1.25.771 2.529 1.493 3.859 2.095.126.056.258.082.391.108v7.42l-5.882 5.882h-3.05c-.713-2-2.608-3.445-4.85-3.445a5.175 5.175 0 00-5.17 5.168 5.175 5.175 0 005.17 5.169c2.242 0 4.137-1.446 4.85-3.446h3.763c.457 0 .896-.18 1.218-.505l6.892-6.891c.324-.322.505-.762.505-1.218v-10.63l1.139-1.217a28.93 28.93 0 003.26.872l1.005 4.31c.167.72.776 1.252 1.51 1.324.578.057 1.132.057 1.7.086v7.296c-2 .714-3.446 2.609-3.446 4.852a5.175 5.175 0 005.169 5.169 5.175 5.175 0 005.169-5.169c0-2.243-1.446-4.138-3.446-4.852v-7.296c.568-.03 1.123-.03 1.7-.086a1.724 1.724 0 001.51-1.323l1.006-4.31a28.902 28.902 0 003.258-.873l1.14 1.218v10.629c0 .456.181.896.505 1.218l6.891 6.891c.323.324.762.505 1.218.505H74.4c.713 2 2.609 3.446 4.852 3.446a5.175 5.175 0 005.168-5.169 5.175 5.175 0 00-5.168-5.168c-2.243 0-4.139 1.445-4.852 3.445h-3.05L65.47 90.6v-7.42c.13-.027.263-.05.39-.108 1.33-.6 2.608-1.321 3.86-2.095H90.6l5.881 5.88v6.496c-2 .713-3.445 2.608-3.445 4.851a5.175 5.175 0 005.168 5.169 5.175 5.175 0 005.169-5.169c0-2.243-1.446-4.138-3.446-4.851v-7.209c0-.456-.18-.896-.505-1.218l-6.891-6.891a1.718 1.718 0 00-1.218-.505H72.365l-1.206-3.97a29.21 29.21 0 002.4-2.4l4.175 1.27a1.722 1.722 0 001.899-.64 34.669 34.669 0 001.862-2.874h6.688c.713 2 2.609 3.445 4.852 3.445a5.175 5.175 0 005.168-5.168 5.175 5.175 0 00-5.168-5.169c-2.243 0-4.139 1.446-4.852 3.446h-5.007a1.709 1.709 0 00-.5-1.577l-3.21-3.008a28.93 28.93 0 00.871-3.26l4.31-1.006a1.724 1.724 0 001.324-1.509c.057-.579.057-1.132.086-1.7h7.296c.714 2 2.609 3.446 4.852 3.446a5.175 5.175 0 005.169-5.17 5.175 5.175 0 00-5.169-5.168c-2.243 0-4.138 1.446-4.852 3.446h-7.296c-.03-.568-.03-1.123-.086-1.7a1.724 1.724 0 00-1.323-1.51l-4.31-1.006a28.902 28.902 0 00-.873-3.258l3.212-3.008a1.71 1.71 0 00.5-1.578h5.006c.713 2 2.609 3.446 4.852 3.446a5.175 5.175 0 005.168-5.169 5.175 5.175 0 00-5.168-5.168c-2.243 0-4.139 1.445-4.852 3.445h-6.688a34.62 34.62 0 00-1.86-2.872 1.722 1.722 0 00-1.901-.64l-4.176 1.267a29.21 29.21 0 00-2.4-2.4l1.206-3.969h18.948zm6.891-22.397c.95 0 1.723.773 1.723 1.723 0 .949-.773 1.722-1.723 1.722-.949 0-1.723-.773-1.723-1.722 0-.95.774-1.723 1.723-1.723zm-18.951 0c.95 0 1.723.773 1.723 1.723 0 .949-.774 1.722-1.723 1.722-.95 0-1.723-.773-1.723-1.722 0-.95.773-1.723 1.723-1.723zM24.12 6.89c-.95 0-1.723-.773-1.723-1.722 0-.95.774-1.723 1.723-1.723.95 0 1.723.773 1.723 1.723 0 .949-.774 1.722-1.723 1.722zM5.17 3.446c.949 0 1.722.773 1.722 1.723 0 .949-.773 1.722-1.722 1.722-.95 0-1.723-.773-1.723-1.722 0-.95.773-1.723 1.723-1.723zm5.168 34.457c-.95 0-1.723-.774-1.723-1.723 0-.95.774-1.723 1.723-1.723.95 0 1.723.774 1.723 1.723 0 .95-.774 1.723-1.723 1.723zm0 31.012c-.95 0-1.723-.774-1.723-1.723 0-.95.774-1.723 1.723-1.723.95 0 1.723.773 1.723 1.723 0 .949-.774 1.723-1.723 1.723zM5.17 99.926c-.95 0-1.723-.773-1.723-1.723 0-.949.773-1.723 1.723-1.723.949 0 1.722.774 1.722 1.723 0 .95-.773 1.723-1.722 1.723zm18.951 0c-.95 0-1.723-.773-1.723-1.723 0-.949.774-1.723 1.723-1.723.95 0 1.723.774 1.723 1.723 0 .95-.774 1.723-1.723 1.723zm55.132-3.446c.95 0 1.723.774 1.723 1.723 0 .95-.774 1.723-1.723 1.723-.95 0-1.723-.773-1.723-1.723 0-.949.773-1.723 1.723-1.723zm18.951 3.446c-.949 0-1.723-.773-1.723-1.723 0-.949.774-1.723 1.723-1.723.95 0 1.723.774 1.723 1.723 0 .95-.773 1.723-1.723 1.723zM93.035 65.47c.949 0 1.723.773 1.723 1.723 0 .949-.774 1.723-1.723 1.723-.95 0-1.723-.774-1.723-1.723 0-.95.773-1.723 1.723-1.723zm0-31.012c.949 0 1.723.774 1.723 1.723 0 .95-.774 1.723-1.723 1.723-.95 0-1.723-.774-1.723-1.723 0-.95.773-1.723 1.723-1.723zM51.685 3.446c.95 0 1.724.773 1.724 1.723 0 .949-.774 1.722-1.723 1.722-.95 0-1.723-.773-1.723-1.722 0-.95.774-1.723 1.723-1.723zM5.17 53.409c-.95 0-1.723-.774-1.723-1.723 0-.95.773-1.723 1.723-1.723.949 0 1.722.774 1.722 1.723 0 .95-.773 1.723-1.722 1.723zm46.517 46.517c-.95 0-1.723-.773-1.723-1.723 0-.949.774-1.723 1.723-1.723.95 0 1.723.774 1.723 1.723 0 .95-.774 1.723-1.723 1.723zm46.517-49.963c.95 0 1.723.774 1.723 1.723 0 .95-.773 1.723-1.723 1.723-.949 0-1.723-.774-1.723-1.723 0-.95.774-1.723 1.723-1.723zm-26.55-14.68a1.723 1.723 0 001.832.553l4.05-1.23a31.529 31.529 0 011.868 3.221l-3.113 2.915a1.72 1.72 0 00-.434 1.864 25.762 25.762 0 011.296 4.845 1.722 1.722 0 001.307 1.396l4.182.975a29.891 29.891 0 01-.002 3.728l-4.181.975a1.722 1.722 0 00-1.308 1.396 25.894 25.894 0 01-1.296 4.844 1.728 1.728 0 00.434 1.865l3.114 2.915a31.427 31.427 0 01-1.868 3.221l-4.049-1.231a1.724 1.724 0 00-1.831.553 26.104 26.104 0 01-3.565 3.564 1.721 1.721 0 00-.553 1.832l1.23 4.05a31.529 31.529 0 01-3.221 1.868l-2.915-3.114a1.724 1.724 0 00-1.865-.434 25.762 25.762 0 01-4.844 1.296 1.722 1.722 0 00-1.396 1.308l-.975 4.18a29.91 29.91 0 01-3.728 0l-.975-4.18a1.722 1.722 0 00-1.396-1.308 25.894 25.894 0 01-4.845-1.296 1.723 1.723 0 00-1.864.434l-2.917 3.114a31.162 31.162 0 01-3.221-1.868l1.232-4.049a1.72 1.72 0 00-.553-1.831 26.104 26.104 0 01-3.565-3.565 1.716 1.716 0 00-1.831-.553l-4.05 1.23a31.529 31.529 0 01-1.869-3.221l3.114-2.915a1.72 1.72 0 00.434-1.865 25.762 25.762 0 01-1.296-4.844 1.722 1.722 0 00-1.307-1.396l-4.182-.975a29.891 29.891 0 01.002-3.728l4.181-.975a1.722 1.722 0 001.308-1.396 25.894 25.894 0 011.296-4.845 1.728 1.728 0 00-.435-1.864l-3.113-2.915a31.427 31.427 0 011.868-3.222l4.049 1.23a1.714 1.714 0 001.83-.552 26.201 26.201 0 013.566-3.565 1.721 1.721 0 00.553-1.831l-1.23-4.05a31.529 31.529 0 013.221-1.869l2.915 3.114a1.728 1.728 0 001.864.434 25.762 25.762 0 014.845-1.296 1.722 1.722 0 001.396-1.307l.975-4.182a29.91 29.91 0 013.728 0l.975 4.182c.159.678.71 1.194 1.396 1.307 1.655.274 3.285.712 4.844 1.296a1.731 1.731 0 001.865-.434l2.916-3.114a31.162 31.162 0 013.222 1.868l-1.232 4.049a1.72 1.72 0 00.553 1.831 26.312 26.312 0 013.565 3.567z" fill="#0000EC"/><path d="M51.686 32.734c-7.706 0-15.506 2.368-15.506 6.892v25.843c0 4.524 7.8 6.891 15.506 6.891s15.506-2.367 15.506-6.891V39.626c0-4.524-7.8-6.892-15.506-6.892zm0 36.18c-7.834 0-12.06-2.444-12.06-3.445v-4.135c2.99 1.59 7.536 2.412 12.06 2.412 4.524 0 9.07-.822 12.06-2.412v4.135c0 1-4.226 3.446-12.06 3.446zm0-8.614c-7.834 0-12.06-2.444-12.06-3.445V52.72c2.99 1.59 7.536 2.412 12.06 2.412 4.524 0 9.07-.822 12.06-2.412v4.135c0 1-4.226 3.445-12.06 3.445zm0-8.614c-7.834 0-12.06-2.445-12.06-3.446v-4.135c2.99 1.59 7.536 2.412 12.06 2.412 4.524 0 9.07-.821 12.06-2.412v4.135c0 1.001-4.226 3.446-12.06 3.446zm0-8.614c-7.834 0-12.06-2.445-12.06-3.446 0-1.001 4.226-3.446 12.06-3.446 7.834 0 12.06 2.445 12.06 3.446 0 1-4.226 3.446-12.06 3.446z" fill="#00F3BB"/></g></svg>