<svg width="104" height="104" xmlns="http://www.w3.org/2000/svg"><g fill-rule="nonzero" fill="none"><path fill="#00F3BB" d="M43.333 17.333h17.333V20.8H43.333zM43.333 24.267h17.333v3.467H43.333z"/><path d="M95.333 90.133V76.267c0-.77-.508-1.448-1.248-1.664l-40.352-11.77V41.6h12.134c.958 0 1.733-.777 1.733-1.733V12.133c0-.459-.182-.901-.508-1.225l-10.4-10.4A1.726 1.726 0 0055.467 0H38.133C37.175 0 36.4.777 36.4 1.733v38.134c0 .956.775 1.733 1.733 1.733h12.134v21.233L9.915 74.603a1.734 1.734 0 00-1.248 1.664v13.866c0 .77.508 1.448 1.248 1.664l41.6 12.134a1.711 1.711 0 00.97 0l41.6-12.134a1.734 1.734 0 001.248-1.664zM57.2 5.918l4.482 4.482H57.2V5.918zM39.867 3.467h13.866v8.666c0 .957.775 1.734 1.734 1.734h8.666v24.266H39.867V3.467zm10.4 62.977v9.105l-3.975-3.974-2.45 2.45 6.933 6.934a1.729 1.729 0 002.45 0l6.934-6.934-2.451-2.45-3.975 3.974v-9.105l33.677 9.823L52 86.594 16.59 76.267l33.677-9.823zM12.133 78.577L50.267 89.7v10.256L12.133 88.833V78.577zm41.6 21.38V89.7l38.134-11.123v10.256L53.733 99.956z" fill="#0000EC"/><path fill="#00F3BB" d="M43.333 10.4h6.933v3.467h-6.933z"/><path d="M1.733 41.6h12.134c0 4.779 3.888 8.667 8.666 8.667h5.2c2.867 0 5.2 2.333 5.2 5.2v2.749L28.96 54.24l-2.451 2.451 6.933 6.933a1.729 1.729 0 002.451 0l6.933-6.933-2.45-2.45-3.975 3.974v-2.75c0-4.778-3.888-8.666-8.667-8.666h-5.2a5.206 5.206 0 01-5.2-5.2h12.134c.958 0 1.733-.777 1.733-1.733V12.133c0-.459-.182-.901-.508-1.225l-10.4-10.4A1.726 1.726 0 0019.067 0H1.733C.775 0 0 .777 0 1.733v38.134c0 .956.775 1.733 1.733 1.733zM20.8 5.918l4.482 4.482H20.8V5.918zM3.467 3.467h13.866v8.666c0 .957.775 1.734 1.734 1.734h8.666v24.266H3.467V3.467z" fill="#0000EC"/><path fill="#00F3BB" d="M6.933 17.333h17.333V20.8H6.933zM6.933 24.267h17.333v3.467H6.933zM6.933 31.2h17.333v3.467H6.933zM6.933 10.4h6.933v3.467H6.933z"/><path d="M104 39.867V12.133c0-.459-.182-.901-.508-1.225l-10.4-10.4A1.726 1.726 0 0091.867 0H74.533C73.575 0 72.8.777 72.8 1.733v38.134c0 .956.775 1.733 1.733 1.733h12.134c0 2.867-2.333 5.2-5.2 5.2h-5.2c-4.78 0-8.667 3.888-8.667 8.667v2.749l-3.975-3.975-2.45 2.451 6.933 6.933a1.729 1.729 0 002.45 0l6.934-6.933-2.45-2.45-3.975 3.974v-2.75c0-2.866 2.333-5.2 5.2-5.2h5.2c4.778 0 8.666-3.887 8.666-8.666h12.134c.958 0 1.733-.777 1.733-1.733zM93.6 5.917l4.482 4.483H93.6V5.918zM76.267 38.134V3.467h13.866v8.666c0 .957.775 1.734 1.734 1.734h8.666v24.266H76.267z" fill="#0000EC"/><path fill="#00F3BB" d="M79.733 17.333h17.333V20.8H79.733zM79.733 24.267h17.333v3.467H79.733zM79.733 31.2h17.333v3.467H79.733zM79.733 10.4h6.933v3.467h-6.933zM43.333 31.2H46.8v3.467h-3.467zM50.267 31.2h3.467v3.467h-3.467zM57.2 31.2h3.467v3.467H57.2z"/></g></svg>