<svg width="24" height="24" xmlns="http://www.w3.org/2000/svg"><defs><linearGradient x1="84.203%" y1="15.775%" x2="14.584%" y2="83.898%" id="a"><stop stop-color="#0000B3" offset="0%"/><stop stop-color="#00F" offset="100%"/></linearGradient></defs><g fill="none" fill-rule="evenodd"><circle fill="url(#a)" cx="12" cy="12" r="12"/><path d="M6.667 8h1.162v3.264h.054c.12-.334.318-.592.592-.773.273-.182.595-.272.965-.272.704 0 1.248.254 1.632.762.384.509.576 1.222.576 2.139 0 .917-.192 1.63-.576 2.139-.384.508-.928.762-1.632.762-.37 0-.692-.092-.965-.277a1.546 1.546 0 01-.592-.768h-.054v.917H6.667V8zm2.421 7.019c.405 0 .729-.13.97-.39.242-.26.363-.602.363-1.029v-.96c0-.427-.12-.77-.362-1.03-.242-.259-.566-.389-.971-.389-.356 0-.654.087-.896.262a.81.81 0 00-.363.688v1.898c0 .285.121.514.363.688.242.175.54.262.896.262zm7.381-.043h-.053c-.12.327-.318.583-.592.768a1.683 1.683 0 01-.965.277c-.704 0-1.248-.254-1.632-.762-.384-.509-.576-1.222-.576-2.139 0-.917.192-1.63.576-2.139.384-.508.928-.762 1.632-.762.37 0 .691.09.965.272.274.181.471.439.592.773h.053V8h1.163v7.893h-1.163v-.917zm-1.258.043c.355 0 .654-.087.896-.262a.81.81 0 00.362-.688v-1.898a.81.81 0 00-.362-.688c-.242-.175-.54-.262-.896-.262-.406 0-.73.13-.971.39-.242.26-.363.602-.363 1.029v.96c0 .427.121.77.363 1.03.242.259.565.389.97.389z" fill="#FFF" fill-rule="nonzero"/></g></svg>